<svg xmlns="http://www.w3.org/2000/svg" width="24" height="17" fill="none"><g clip-path="url(#a)"><path fill="#1A47B8" d="M0 0h24v17H0z"/><path fill="#fff" fill-rule="evenodd" d="M2.553 0H0v2.833L21.433 17H24v-2.833z" clip-rule="evenodd"/><path fill="#F93939" d="M.852 0 24 15.34V17h-.832L0 1.644V0z"/><path fill="#fff" fill-rule="evenodd" d="M21.714 0H24v2.833S9.154 12.272 2.286 17H0v-2.833z" clip-rule="evenodd"/><path fill="#F93939" d="M24 0h-.775L0 15.353V17h.852L24 1.656z"/><path fill="#fff" fill-rule="evenodd" d="M8.728 0h6.564v5.244H24v6.509h-8.708V17H8.728v-5.247H0v-6.51h8.728z" clip-rule="evenodd"/><path fill="#F93939" fill-rule="evenodd" d="M10.105 0h3.79v6.538H24v3.923H13.895V17h-3.79v-6.539H0V6.538h10.105z" clip-rule="evenodd"/></g><defs><clipPath id="a"><path fill="#fff" d="M0 0h24v17H0z"/></clipPath></defs></svg>