<svg xmlns="http://www.w3.org/2000/svg" width="24" height="17" fill="none"><g clip-path="url(#a)"><path fill="#F93939" d="M0 0h24v17H0z"/><path fill="#F93939" d="M21.714 0H2.286A2.276 2.276 0 0 0 0 2.267v12.466A2.276 2.276 0 0 0 2.286 17h19.428A2.276 2.276 0 0 0 24 14.733V2.267A2.276 2.276 0 0 0 21.714 0"/><path fill="#FFDA2C" fill-rule="evenodd" d="m6.284 8.194-1.68.876.32-1.855L3.566 5.9l1.878-.269.84-1.688.838 1.688L9 5.9 7.64 7.215l.322 1.854zM10.286 3.4h1.143v1.133h-1.143zm1.143 2.267h1.143V6.8h-1.143zm0 2.266h1.143v1.134h-1.143zM10.286 10.2h1.143v1.133h-1.143z" clip-rule="evenodd"/></g><defs><clipPath id="a"><path fill="#fff" d="M0 0h24v17H0z"/></clipPath></defs></svg>