<svg width="29" height="28" viewBox="0 0 29 28" fill="none" xmlns="http://www.w3.org/2000/svg">
<path fill-rule="evenodd" clip-rule="evenodd" d="M5.51611 0.285645C2.9955 0.285645 0.952148 2.33234 0.952148 4.85707V23.1428C0.952148 25.6675 2.9955 27.7142 5.51611 27.7142H23.2453C25.7659 27.7142 27.8093 25.6675 27.8093 23.1428V4.85707C27.8093 2.33234 25.7659 0.285645 23.2453 0.285645H5.51611ZM4.63811 6.42142C4.63811 7.80051 5.682 8.80833 6.96966 8.80833C8.25752 8.80833 9.3014 7.80051 9.3014 6.42142C9.3014 5.04252 8.25752 4.03355 6.96966 4.03355C5.682 4.03355 4.63811 5.04252 4.63811 6.42142ZM19.8572 23.8585H23.9014V15.6886C23.9014 11.6537 21.4628 10.2775 19.2061 10.2775C17.1195 10.2775 15.702 11.6658 15.3106 12.4791V10.6488H11.4213V23.8585H15.4655V16.6966C15.4655 14.787 16.6418 13.8583 17.8419 13.8583C18.9769 13.8583 19.8572 14.5149 19.8572 16.6436V23.8585ZM8.99167 10.6386V23.8483H4.94766V10.6386H8.99167Z" fill="white"/>
</svg>
