<svg width="58" height="59" viewBox="0 0 58 59" fill="none" xmlns="http://www.w3.org/2000/svg">
<g filter="url(#filter0_d_211_14742)">
<path d="M50.6 6.2C46.0667 13.5333 43.2 20.9333 42 28.4C43.7333 28.8 45 29.2667 45.8 29.8C47 30.4667 48 31.2 48.8 32C49.6 32.8 50.2667 33.6667 50.8 34.6C51.3333 36.0667 51.6 37.8 51.6 39.8C51.6 42.8667 50.7333 45.5333 49 47.8C47.4 49.9333 45.2667 51 42.6 51C39.4 51 36.6 49.4 34.2 46.2C32.6 43.4 31.8 40 31.8 36C31.8 34.9333 31.8667 33.9333 32 33C32.1333 32.0667 32.3333 31.0667 32.6 30C32.8667 28.6667 33.1333 27.6667 33.4 27C34.2 24.6 35.1333 22.2 36.2 19.8C37.4 17.4 38.7333 15.0667 40.2 12.8C41.4 10.9333 42.6 9.26666 43.8 7.79999C45.1333 6.19999 46.5333 4.66666 48 3.19999C48.5333 2.79999 49 2.46666 49.4 2.19999C49.9333 1.79999 50.4667 1.4 51 0.999993C51.1333 0.999993 51.2 0.999993 51.2 0.999993C51.3333 0.866661 51.4667 0.799995 51.6 0.799995C52.6667 0.799995 53.2 1.4 53.2 2.6C53.2 2.86666 53.1333 3.06666 53 3.19999L50.6 6.2ZM25.2 3.19999C24.8 3.73332 24.4 4.26666 24 4.79999C23.6 5.19999 23.2667 5.66666 23 6.2C18.2 13.2667 15.2 20.6667 14 28.4C15.6 28.8 16.9333 29.2667 18 29.8C20.2667 31 21.8667 32.6 22.8 34.6C23.0667 35.4 23.3333 36.2667 23.6 37.2C23.8667 38 24 38.8667 24 39.8C24 42.8667 23.0667 45.5333 21.2 47.8C19.4667 49.9333 17.3333 51 14.8 51C11.2 51 8.46667 49.4 6.6 46.2C5 43.4 4.2 40 4.2 36C4.2 34 4.4 32 4.8 30C5.06667 28.6667 5.33333 27.6667 5.6 27C6.4 24.6 7.33333 22.2 8.4 19.8C9.6 17.4 10.9333 15.0667 12.4 12.8C14.5333 9.19999 17.1333 5.99999 20.2 3.19999C20.7333 2.79999 21.2 2.46666 21.6 2.19999C22.1333 1.79999 22.6667 1.4 23.2 0.999993C23.3333 0.999993 23.4 0.999993 23.4 0.999993C23.4 0.866661 23.4667 0.799995 23.6 0.799995C24 0.799995 24.4 0.999993 24.8 1.39999C25.2 1.66666 25.4 2.06666 25.4 2.6C25.4 2.86666 25.3333 3.06666 25.2 3.19999Z" fill="white"/>
</g>
<defs>
<filter id="filter0_d_211_14742" x="0.200195" y="0.800049" width="57" height="58.2" filterUnits="userSpaceOnUse" color-interpolation-filters="sRGB">
<feFlood flood-opacity="0" result="BackgroundImageFix"/>
<feColorMatrix in="SourceAlpha" type="matrix" values="0 0 0 0 0 0 0 0 0 0 0 0 0 0 0 0 0 0 127 0" result="hardAlpha"/>
<feOffset dy="4"/>
<feGaussianBlur stdDeviation="2"/>
<feComposite in2="hardAlpha" operator="out"/>
<feColorMatrix type="matrix" values="0 0 0 0 0 0 0 0 0 0 0 0 0 0 0 0 0 0 0.25 0"/>
<feBlend mode="normal" in2="BackgroundImageFix" result="effect1_dropShadow_211_14742"/>
<feBlend mode="normal" in="SourceGraphic" in2="effect1_dropShadow_211_14742" result="shape"/>
</filter>
</defs>
</svg>
