<svg xmlns="http://www.w3.org/2000/svg" fill="none" viewBox="2.2119912790697676 1.6112 28.843023255813954 28.992" style="max-height: 500px" width="28.843023255813954" height="28.992">
<path fill="white" d="M16.6664 2.28564C24.2406 2.28564 30.3807 8.42574 30.3807 15.9999C30.3807 23.5741 24.2406 29.7142 16.6664 29.7142C9.09224 29.7142 2.95215 23.5741 2.95215 15.9999C2.95215 8.42574 9.09224 2.28564 16.6664 2.28564ZM9.43014 9.90591C10.8808 9.52895 16.6609 9.52895 16.6609 9.52895C16.6609 9.52895 22.4523 9.52897 23.903 9.92877C24.6912 10.1344 25.3193 10.7626 25.525 11.5507C25.9248 13.0014 25.9134 16.0172 25.9134 16.0172C25.9134 16.0172 25.9133 19.0214 25.525 20.4607C25.3193 21.2603 24.6912 21.8771 23.903 22.0941C22.4523 22.4711 16.6609 22.4711 16.6609 22.4711C16.6609 22.4711 10.8923 22.4711 9.43014 22.0827C8.64196 21.8657 8.01378 21.2375 7.79675 20.4493C7.41979 19.0214 7.41978 16.0057 7.41978 16.0057C7.41978 16.0057 7.41979 13.0014 7.79675 11.5507C8.01378 10.7626 8.65338 10.1229 9.43014 9.90591ZM19.6309 16.0057L14.8217 13.23V18.77L19.6309 16.0057Z" clip-rule="evenodd" fill-rule="evenodd"/>
</svg>