<svg width="24" height="17" viewBox="0 0 24 17" fill="none" xmlns="http://www.w3.org/2000/svg">
<g clip-path="url(#clip0_1736_4880)">
<rect width="24" height="17" fill="#F93939"/>
<path d="M21.7143 0H2.28571C1.02335 0 0 1.01482 0 2.26667V14.7333C0 15.9852 1.02335 17 2.28571 17H21.7143C22.9767 17 24 15.9852 24 14.7333V2.26667C24 1.01482 22.9767 0 21.7143 0Z" fill="#F93939"/>
<path fill-rule="evenodd" clip-rule="evenodd" d="M6.28363 8.1939L4.60363 9.06997L4.92363 7.2147L3.56592 5.90004L5.44363 5.63144L6.28363 3.94277L7.12249 5.63144L9.0002 5.90004L7.6402 7.2147L7.96249 9.06884L6.28363 8.1939ZM10.2859 3.3999H11.4288V4.53324H10.2859V3.3999ZM11.4288 5.66657H12.5716V6.7999H11.4288V5.66657ZM11.4288 7.93324H12.5716V9.06657H11.4288V7.93324ZM10.2859 10.1999H11.4288V11.3332H10.2859V10.1999Z" fill="#FFDA2C"/>
</g>
<defs>
<clipPath id="clip0_1736_4880">
<rect width="24" height="17" fill="white"/>
</clipPath>
</defs>
</svg>
